<svg width="211" height="44" viewBox="0 0 211 44" fill="none" xmlns="http://www.w3.org/2000/svg">
<g id="Frame" clip-path="url(#clip0_567_731)">
<path id="Vector" d="M32.5017 13.4071H42.3847V43.5257H32.5017V13.4071ZM44.4287 1.63064H54.309V43.5257H44.4287V1.63064ZM56.3539 1.63064H66.2342V43.5257H56.3539V1.63064ZM172.584 16.5132V13.4071H162.702V43.5257H172.584V29.1714C172.584 25.4785 174.51 23.4864 178.021 23.4864H179.19V13.1144C176.208 13.2319 174.044 14.1694 172.584 16.5132ZM37.4423 0C34.2796 0 31.7126 2.5714 31.7126 5.74256C31.7126 8.91373 34.2796 11.4861 37.4423 11.4861C40.6077 11.4861 43.1728 8.91373 43.1728 5.74256C43.1728 2.5714 40.6077 0 37.4423 0ZM150.773 15.7002C149.384 14.182 146.152 12.929 143.698 12.929C136.235 12.929 130.881 17.8595 129.571 25.1886C128.142 18.1573 122.027 12.7474 114.569 12.7474C107.04 12.7474 100.876 18.2205 99.5281 25.3837C98.2198 17.9385 92.3757 13.0038 85.1282 13.0038C82.4389 13.0038 80.2159 13.5901 78.2855 14.9364V1.63576H68.4052V43.5303H78.1121V40.7754C80.451 42.944 82.9646 43.9401 86.0647 43.9401C92.7396 43.9401 98.3594 38.7039 99.5615 31.4863C100.978 38.5492 107.057 43.9182 114.57 43.9182C122.017 43.9182 127.99 38.663 129.511 31.7813C130.767 39.2981 136.711 44 143.815 44C146.268 44 148.96 43.1772 150.773 41.8314V43.5303H160.653V30.349C160.653 29.8083 160.649 29.2815 160.639 28.7667C160.649 28.252 160.653 27.7256 160.653 27.1848V13.4582H150.773V15.7002ZM84.0763 34.3541C80.9118 34.3541 78.3467 31.7827 78.3467 28.6106C78.3467 25.4404 80.9118 22.8694 84.0763 22.8694C87.2399 22.8694 89.806 25.4404 89.806 28.6106C89.8064 31.7827 87.2404 34.3541 84.0763 34.3541ZM114.569 33.8942C111.407 33.8942 108.839 31.3209 108.839 28.1507C108.839 24.9809 111.407 22.4095 114.569 22.4095C117.733 22.4095 120.299 24.9809 120.299 28.1507C120.299 31.3205 117.734 33.8942 114.569 33.8942ZM144.261 34.0763C141.097 34.0763 138.534 31.503 138.534 28.3328C138.534 25.163 141.096 22.5916 144.261 22.5916C147.429 22.5916 149.991 25.163 149.991 28.3328C149.992 31.503 147.429 34.0763 144.261 34.0763ZM201.117 1.626V14.9271C199.19 13.5799 196.968 12.9945 194.276 12.9945C186.032 12.9945 179.601 19.3805 179.601 28.5809C179.601 37.2516 185.798 43.9317 193.343 43.9317C196.44 43.9317 198.954 42.9347 201.295 40.7675V43.5215H211.001V1.626H201.117ZM195.297 34.2798C192.137 34.2798 189.57 31.7065 189.57 28.5386C189.57 25.3665 192.136 22.7942 195.297 22.7942C198.463 22.7942 201.029 25.3665 201.029 28.5386C201.029 31.7065 198.463 34.2798 195.297 34.2798ZM16.723 13.0033C14.0327 13.0033 11.8116 13.5896 9.88026 14.936V1.63576H0V43.5303H9.70595V40.7754C12.0448 42.944 14.5594 43.9401 17.6595 43.9401C25.2013 43.9401 31.3992 37.2581 31.3992 28.5874C31.3992 19.3903 24.9672 13.0033 16.723 13.0033ZM15.6711 34.3541C12.5075 34.3541 9.94145 31.7827 9.94145 28.6106C9.94145 25.4404 12.5075 22.8694 15.6711 22.8694C18.8356 22.8694 21.4007 25.4404 21.4007 28.6106C21.4007 31.7827 18.8356 34.3541 15.6711 34.3541Z" fill="white"/>
</g>
<defs>
<clipPath id="clip0_567_731">
<rect width="211" height="44" fill="white"/>
</clipPath>
</defs>
</svg>
