<svg width="233" height="222" viewBox="0 0 233 222" fill="none" xmlns="http://www.w3.org/2000/svg">
<path d="M185.776 126.09C185.776 89.7073 156.103 60.2134 119.5 60.2134C82.8972 60.2134 53.2246 89.7073 53.2246 126.09C53.2246 162.472 82.8972 191.966 119.5 191.966C156.103 191.966 185.776 162.472 185.776 126.09Z" stroke="#F4F4F4"/>
<path d="M118.978 95.301C102.263 95.301 88.7119 108.769 88.7119 125.385C88.7119 142.001 102.263 155.47 118.978 155.47C135.693 155.47 149.244 142.001 149.244 125.385C149.244 108.769 135.693 95.301 118.978 95.301ZM133.745 138.669C133.258 139.525 132.364 140.006 131.442 140.006C131.011 140.006 130.567 139.898 130.159 139.673C126.379 137.567 122.262 136.277 117.91 135.839C113.549 135.404 109.242 135.844 105.106 137.158C103.726 137.595 102.24 136.837 101.8 135.464C101.355 134.087 102.121 132.615 103.506 132.174C108.33 130.643 113.361 130.121 118.441 130.635C123.514 131.148 128.32 132.652 132.731 135.11C134.001 135.813 134.455 137.408 133.745 138.669ZM137.367 129.531C136.9 130.426 135.982 130.94 135.034 130.94C134.62 130.94 134.208 130.845 133.818 130.643C129.172 128.237 124.155 126.749 118.895 126.217C113.595 125.679 108.344 126.149 103.281 127.6C101.882 127.994 100.424 127.2 100.025 125.81C99.6216 124.423 100.429 122.972 101.823 122.572C107.537 120.934 113.462 120.41 119.428 121.012C125.352 121.611 131.011 123.289 136.253 126.004C137.537 126.672 138.041 128.251 137.367 129.531ZM138.679 121.929C138.285 121.929 137.886 121.841 137.505 121.655C131.992 118.922 126.063 117.221 119.877 116.597C113.681 115.967 107.518 116.454 101.552 118.038C100.149 118.407 98.709 117.58 98.333 116.183C97.9569 114.787 98.7916 113.353 100.199 112.98C106.78 111.234 113.585 110.702 120.414 111.392C127.233 112.078 133.772 113.957 139.853 116.971C141.156 117.615 141.683 119.188 141.036 120.48C140.578 121.399 139.647 121.929 138.679 121.929Z" fill="white"/>
<path d="M189.974 0.518677H188.749C165.345 0.518677 146.373 19.3766 146.373 42.6391C146.373 65.9015 165.345 84.7595 188.749 84.7595H189.974C213.378 84.7595 232.35 65.9015 232.35 42.6391C232.35 19.3766 213.378 0.518677 189.974 0.518677Z" stroke="#F4F4F4"/>
<path d="M206.923 53.9842C206.268 55.4339 205.492 56.7684 204.592 57.9953C203.366 59.6679 202.362 60.8256 201.588 61.4685C200.389 62.5238 199.104 63.0642 197.729 63.095C196.74 63.095 195.55 62.826 194.163 62.2804C192.771 61.7375 191.493 61.4685 190.324 61.4685C189.099 61.4685 187.784 61.7375 186.377 62.2804C184.969 62.826 183.833 63.1103 182.966 63.1385C181.647 63.1923 180.332 62.6365 179.019 61.4685C178.181 60.7693 177.133 59.5705 175.877 57.8723C174.53 56.0589 173.423 53.9561 172.555 51.5586C171.627 48.969 171.161 46.4615 171.161 44.0338C171.161 41.2529 171.788 38.8545 173.046 36.8445C174.035 35.2302 175.35 33.9567 176.996 33.0218C178.642 32.0869 180.421 31.6104 182.336 31.5799C183.384 31.5799 184.758 31.8901 186.467 32.4998C188.169 33.1114 189.263 33.4216 189.742 33.4216C190.101 33.4216 191.315 33.0589 193.375 32.3359C195.322 31.6653 196.966 31.3876 198.312 31.4969C201.961 31.7787 204.701 33.155 206.525 35.6343C203.261 37.5262 201.648 40.1759 201.679 43.5751C201.709 46.2228 202.712 48.4261 204.686 50.1754C205.579 50.9874 206.578 51.6149 207.69 52.0606C207.448 52.7291 207.194 53.3694 206.923 53.9842ZM198.555 22.4769C198.555 24.5522 197.763 26.4898 196.184 28.2832C194.278 30.4153 191.973 31.6473 189.472 31.4529C189.441 31.204 189.422 30.9419 189.422 30.6666C189.422 28.6743 190.329 26.5423 191.938 24.799C192.742 23.9163 193.764 23.1824 195.004 22.597C196.24 22.0203 197.409 21.7013 198.51 21.6468C198.542 21.9242 198.555 22.2016 198.555 22.4769Z" fill="white"/>
<path d="M37.3816 150.365H36.1561C16.4756 150.365 0.521484 166.223 0.521484 185.785C0.521484 205.346 16.4756 221.205 36.1561 221.205H37.3816C57.0621 221.205 73.0162 205.346 73.0162 185.785C73.0162 166.223 57.0621 150.365 37.3816 150.365Z" stroke="#F4F4F4"/>
<mask id="mask0_1589_1365" style="mask-type:luminance" maskUnits="userSpaceOnUse" x="19" y="173" width="34" height="25">
<path d="M52.9999 173.971H19.0127V197.136H52.9999V173.971Z" fill="white"/>
</mask>
<g mask="url(#mask0_1589_1365)">
<path fill-rule="evenodd" clip-rule="evenodd" d="M40.0353 181.899C38.0658 183.338 35.2132 184.106 32.7528 184.106C29.4736 184.122 26.3056 182.922 23.8638 180.741C23.678 180.576 23.8435 180.35 24.0642 180.48C26.7771 182.017 29.8446 182.823 32.9648 182.82C35.1435 182.82 37.5459 182.371 39.7507 181.442C40.0848 181.303 40.3636 181.659 40.0382 181.899H40.0353ZM40.8545 180.973C40.6018 180.654 39.19 180.819 38.5568 180.894C38.3622 180.918 38.3331 180.75 38.5074 180.631C39.6345 179.846 41.4791 180.072 41.6941 180.336C41.9119 180.599 41.6359 182.435 40.5815 183.312C40.4188 183.448 40.2649 183.376 40.3374 183.196C40.5756 182.609 41.1073 181.291 40.8545 180.973ZM38.6004 175.086V174.324C38.6004 174.208 38.6875 174.13 38.795 174.13H42.243C42.3535 174.13 42.4407 174.208 42.4407 174.321V174.976C42.4407 175.086 42.3476 175.231 42.1791 175.456L40.3956 177.984C41.0579 177.97 41.7609 178.068 42.3622 178.404C42.4987 178.479 42.5365 178.592 42.5452 178.702V179.513C42.5452 179.629 42.4203 179.756 42.2925 179.687C41.7282 179.399 41.1035 179.251 40.4701 179.253C39.8366 179.254 39.2125 179.406 38.6497 179.696C38.5277 179.759 38.4028 179.632 38.4028 179.519V178.746C38.4028 178.621 38.4057 178.41 38.5307 178.222L40.6018 175.274H38.8008C38.6904 175.274 38.6004 175.199 38.5975 175.083L38.6004 175.086ZM45.4094 174.032C46.9664 174.032 47.8089 175.358 47.8089 177.043C47.8089 178.671 46.8793 179.962 45.4094 179.962C43.8814 179.962 43.0507 178.636 43.0507 176.985C43.0507 175.323 43.8931 174.032 45.4094 174.032ZM45.4181 175.121C44.6455 175.121 44.596 176.163 44.596 176.817C44.596 177.469 44.5873 178.862 45.4094 178.862C46.2228 178.862 46.2605 177.738 46.2605 177.052C46.2605 176.603 46.2402 176.065 46.1037 175.639C45.9875 175.268 45.7522 175.121 45.4181 175.121ZM36.9097 179.838C36.8399 179.895 36.7122 179.901 36.6628 179.861C36.3026 179.586 36.0614 179.166 36.0614 179.166C35.4863 179.748 35.0767 179.924 34.3301 179.924C33.45 179.924 32.7615 179.383 32.7615 178.303C32.7496 177.939 32.8506 177.581 33.0509 177.276C33.251 176.972 33.5406 176.737 33.8798 176.603C34.4493 176.354 35.2452 176.311 35.8523 176.241C35.8523 176.241 35.9017 175.59 35.7245 175.352C35.6533 175.265 35.5631 175.196 35.4609 175.149C35.3588 175.102 35.2472 175.08 35.1349 175.083C34.7485 175.083 34.3708 175.291 34.2953 175.694C34.275 175.81 34.1907 175.908 34.0978 175.897L33.0956 175.789C33.0706 175.786 33.0465 175.778 33.0247 175.765C33.0031 175.752 32.9843 175.735 32.9696 175.715C32.9548 175.694 32.9445 175.671 32.9392 175.647C32.9338 175.622 32.9337 175.596 32.9387 175.572C33.1711 174.35 34.2837 173.98 35.2829 173.98C35.7942 173.98 36.4595 174.116 36.8632 174.498C37.3716 174.97 37.3251 175.598 37.3251 176.287V177.909C37.3251 178.396 37.5284 178.61 37.7201 178.87C37.787 178.966 37.8015 179.079 37.7173 179.148C37.5023 179.325 36.9097 179.838 36.9097 179.838ZM35.8523 177.301V177.075C35.0942 177.075 34.2924 177.237 34.2924 178.123C34.2924 178.572 34.5276 178.876 34.9315 178.876C35.222 178.876 35.4892 178.697 35.6577 178.404C35.861 178.042 35.8523 177.706 35.8523 177.301ZM23.1579 179.838C23.0911 179.895 22.9633 179.901 22.9139 179.861C22.5537 179.586 22.3126 179.166 22.3126 179.166C21.7346 179.748 21.3279 179.924 20.5813 179.924C19.6982 179.924 19.0127 179.383 19.0127 178.303C19.0007 177.939 19.1018 177.581 19.3019 177.276C19.5022 176.972 19.7918 176.737 20.131 176.603C20.7004 176.354 21.4964 176.311 22.1035 176.241C22.1035 176.241 22.1529 175.59 21.9757 175.352C21.9044 175.265 21.8143 175.196 21.7121 175.149C21.6099 175.102 21.4983 175.08 21.3859 175.083C20.9967 175.083 20.622 175.291 20.5465 175.694C20.5261 175.81 20.439 175.908 20.3489 175.897L19.3438 175.789C19.319 175.786 19.2952 175.777 19.274 175.764C19.2526 175.751 19.2342 175.734 19.2197 175.714C19.2053 175.694 19.1952 175.671 19.1901 175.646C19.1849 175.621 19.1848 175.596 19.1899 175.572C19.4193 174.35 20.5348 173.98 21.5341 173.98C22.0454 173.98 22.7106 174.116 23.1143 174.498C23.6227 174.97 23.5734 175.598 23.5734 176.287V177.909C23.5734 178.396 23.7767 178.61 23.9684 178.87C24.0352 178.966 24.0498 179.079 23.9655 179.148C23.7506 179.325 23.1579 179.838 23.1579 179.838ZM22.1035 177.301V177.075C21.3453 177.075 20.5435 177.237 20.5435 178.123C20.5435 178.572 20.7759 178.876 21.1826 178.876C21.4731 178.876 21.7404 178.697 21.9089 178.404C22.1122 178.042 22.1035 177.706 22.1035 177.301ZM26.2284 176.829V179.655C26.2284 179.762 26.1412 179.849 26.0308 179.849H24.9851C24.9593 179.849 24.9337 179.844 24.9097 179.835C24.8858 179.825 24.864 179.811 24.8457 179.793C24.8272 179.775 24.8126 179.754 24.8026 179.729C24.7927 179.706 24.7876 179.68 24.7876 179.655V174.339C24.7876 174.232 24.8747 174.145 24.9851 174.145H25.964C26.0715 174.145 26.1587 174.232 26.1587 174.339V175.019H26.179C26.4347 174.347 26.9139 174.032 27.5588 174.032C28.2153 174.032 28.6249 174.347 28.9212 175.019C29.0268 174.723 29.2236 174.468 29.4835 174.29C29.7434 174.113 30.053 174.022 30.3679 174.032C30.8094 174.032 31.2888 174.211 31.5821 174.617C31.9162 175.066 31.8464 175.717 31.8464 176.29V179.658C31.8464 179.765 31.7564 179.849 31.6431 179.849H30.5974C30.5473 179.847 30.4997 179.827 30.4645 179.791C30.4293 179.755 30.4093 179.707 30.4086 179.658V176.829C30.4086 176.603 30.4289 176.041 30.3795 175.83C30.3011 175.468 30.0658 175.367 29.7608 175.367C29.6249 175.371 29.4935 175.415 29.3826 175.493C29.2716 175.571 29.1859 175.68 29.1362 175.807C29.0287 176.076 29.0374 176.525 29.0374 176.829V179.658C29.0374 179.765 28.9474 179.849 28.8341 179.849H27.7884C27.7383 179.847 27.6907 179.827 27.6554 179.791C27.6203 179.755 27.6003 179.707 27.5995 179.658V176.829C27.5995 176.232 27.6953 175.358 26.9517 175.358C26.1965 175.358 26.2255 176.209 26.2255 176.829H26.2284ZM50.0311 179.655C50.0311 179.762 49.944 179.849 49.8365 179.849H48.7878C48.7623 179.849 48.7369 179.844 48.7133 179.834C48.6897 179.824 48.6683 179.81 48.6502 179.792C48.6321 179.774 48.6178 179.753 48.608 179.729C48.5982 179.705 48.5932 179.68 48.5932 179.655V174.339C48.5932 174.232 48.6803 174.145 48.7878 174.145H49.7551C49.8713 174.145 49.9527 174.234 49.9527 174.295V175.109H49.973C50.2634 174.379 50.676 174.032 51.4022 174.032C51.8728 174.032 52.3318 174.2 52.6252 174.66C52.8982 175.089 52.8982 175.807 52.8982 176.322V179.681C52.8911 179.728 52.8669 179.772 52.83 179.803C52.793 179.834 52.746 179.85 52.6978 179.849H51.6462C51.6005 179.846 51.557 179.829 51.5231 179.798C51.4891 179.767 51.467 179.726 51.4603 179.681V176.455C51.4603 175.378 51.0449 175.346 50.8038 175.346C50.525 175.346 50.2983 175.564 50.2025 175.763C50.0709 176.086 50.0115 176.434 50.0282 176.783L50.0311 179.655ZM19.2828 196.933C19.1027 196.933 19.0127 196.847 19.0127 196.664V190.383C19.0127 190.204 19.1027 190.114 19.2828 190.114H19.8841C19.9713 190.114 20.0439 190.134 20.0933 190.169C20.1427 190.204 20.1776 190.273 20.1949 190.372L20.2763 190.8C21.1448 190.21 21.9901 189.914 22.8122 189.914C23.6546 189.914 24.2241 190.233 24.5233 190.87C25.4179 190.233 26.3126 189.914 27.2074 189.914C27.8319 189.914 28.3112 190.088 28.6453 190.436C28.9794 190.789 29.1479 191.287 29.1479 191.93V196.664C29.1479 196.844 29.0548 196.933 28.8748 196.933H28.0759C27.8959 196.933 27.8028 196.847 27.8028 196.664V192.309C27.8028 191.86 27.7157 191.527 27.5473 191.313C27.3729 191.096 27.1028 190.989 26.7339 190.989C26.0715 190.989 25.4093 191.191 24.7382 191.597C24.7469 191.658 24.7527 191.724 24.7527 191.797V196.664C24.7527 196.844 24.6627 196.933 24.4826 196.933H23.6809C23.5007 196.933 23.4107 196.847 23.4107 196.664V192.309C23.4107 191.86 23.3235 191.527 23.1521 191.313C22.9778 191.096 22.7077 190.989 22.3388 190.989C21.6503 190.989 20.9909 191.186 20.3576 191.582V196.664C20.3576 196.844 20.2705 196.933 20.0874 196.933H19.2828ZM33.0637 197.136C32.4216 197.136 31.9307 196.957 31.585 196.598C31.2422 196.238 31.0709 195.732 31.0709 195.077V190.389C31.0709 190.207 31.1581 190.117 31.341 190.117H32.1399C32.3228 190.117 32.413 190.207 32.413 190.386V194.652C32.413 195.135 32.5059 195.491 32.6976 195.72C32.8865 195.949 33.1915 196.062 33.6069 196.062C34.2575 196.062 34.914 195.848 35.5735 195.416V190.383C35.5735 190.204 35.6606 190.114 35.8436 190.114H36.6424C36.8255 190.114 36.9155 190.204 36.9155 190.383V196.667C36.9155 196.844 36.8255 196.933 36.6424 196.933H36.0614C35.9714 196.933 35.8988 196.916 35.8495 196.881C35.8 196.844 35.7681 196.777 35.7478 196.679L35.6548 196.21C34.8124 196.826 33.9496 197.136 33.0637 197.136ZM40.7674 197.136C40.0063 197.136 39.3236 197.012 38.7194 196.76C38.6334 196.73 38.5564 196.68 38.4958 196.612C38.4551 196.557 38.4347 196.473 38.4347 196.357V195.978C38.4347 195.816 38.4871 195.735 38.5975 195.735C38.6614 195.735 38.7718 195.764 38.9344 195.816C39.5328 196.004 40.1545 196.097 40.7935 196.097C41.238 196.097 41.5749 196.01 41.8044 195.842C42.0368 195.671 42.1501 195.425 42.1501 195.103C42.1544 195.006 42.138 194.908 42.1018 194.818C42.0658 194.727 42.0111 194.644 41.9409 194.576C41.7136 194.394 41.4533 194.258 41.1741 194.174L40.0209 193.745C39.0157 193.378 38.5161 192.749 38.5161 191.863C38.5161 191.278 38.7426 190.806 39.2017 190.45C39.6577 190.091 40.2561 189.912 40.9969 189.912C41.585 189.912 42.1684 190.017 42.7194 190.221C42.8269 190.256 42.9054 190.302 42.9519 190.36C42.9954 190.418 43.0187 190.505 43.0187 190.621V190.986C43.0187 191.148 42.9606 191.229 42.8444 191.229C42.7373 191.22 42.6319 191.198 42.5307 191.162C42.0514 191.018 41.5633 190.945 41.0637 190.945C40.1981 190.945 39.7623 191.238 39.7623 191.82C39.7623 192.051 39.8349 192.237 39.9802 192.37C40.1254 192.506 40.4101 192.654 40.8342 192.816L41.8916 193.221C42.4261 193.424 42.8096 193.67 43.0448 193.954C43.2801 194.235 43.3963 194.6 43.3963 195.048C43.3963 195.685 43.1581 196.192 42.6789 196.569C42.1995 196.945 41.5633 197.133 40.7674 197.133V197.136ZM45.1073 196.933C44.9272 196.933 44.8342 196.847 44.8342 196.664V190.383C44.8342 190.204 44.9272 190.114 45.1073 190.114H45.9062C46.0862 190.114 46.1792 190.204 46.1792 190.383V196.667C46.1792 196.844 46.0862 196.933 45.9062 196.933H45.1073ZM45.514 188.904C45.2526 188.904 45.0463 188.831 44.8952 188.684C44.8199 188.607 44.7611 188.515 44.7227 188.414C44.6841 188.313 44.6668 188.206 44.6716 188.099C44.6716 187.856 44.7471 187.662 44.8952 187.514C44.9779 187.437 45.0753 187.377 45.1817 187.339C45.288 187.301 45.4011 187.284 45.514 187.291C45.7754 187.291 45.9787 187.366 46.1298 187.514C46.2809 187.659 46.3535 187.856 46.3535 188.099C46.3535 188.339 46.2809 188.533 46.1298 188.684C45.9816 188.829 45.7754 188.904 45.514 188.904ZM51.1814 197.081C50.1154 197.081 49.2991 196.78 48.7355 196.175C48.1691 195.567 47.8873 194.692 47.8873 193.546C47.8873 192.408 48.1778 191.524 48.7617 190.902C49.3427 190.279 50.1705 189.967 51.2366 189.967C51.7246 189.967 52.2039 190.053 52.6745 190.224C52.7734 190.259 52.8431 190.302 52.8837 190.357C52.9244 190.412 52.9447 190.502 52.9447 190.627V190.989C52.9447 191.168 52.8866 191.258 52.7704 191.258C52.7239 191.258 52.6542 191.246 52.5525 191.217C52.1863 191.111 51.8069 191.057 51.4254 191.058C50.6673 191.058 50.1183 191.246 49.7842 191.629C49.4501 192.011 49.2845 192.616 49.2845 193.453V193.627C49.2845 194.44 49.453 195.04 49.7929 195.422C50.1327 195.801 50.6673 195.992 51.3993 195.992C51.7769 195.992 52.1836 195.932 52.6193 195.804C52.721 195.775 52.7878 195.764 52.8227 195.764C52.9389 195.764 52.9999 195.853 52.9999 196.033V196.398C52.9999 196.514 52.9824 196.6 52.9447 196.653C52.9099 196.705 52.8373 196.754 52.7298 196.797C52.2853 196.988 51.7711 197.081 51.1814 197.081Z" fill="white"/>
</g>
<path d="M28.1893 99.1978H28.1892C14.2625 99.1978 2.97266 110.42 2.97266 124.263V125.481C2.97266 139.324 14.2625 150.546 28.1892 150.546H28.1893C42.1161 150.546 53.4059 139.324 53.4059 125.481V124.263C53.4059 110.42 42.1161 99.1978 28.1893 99.1978Z" stroke="#F4F4F4"/>
<path fill-rule="evenodd" clip-rule="evenodd" d="M35.6623 117.862C35.8664 116.686 36.1659 115.946 36.4977 115.945C37.1164 115.947 37.6185 118.512 37.6185 121.678C37.6185 124.844 37.1163 127.41 36.497 127.41C36.2431 127.41 36.0088 126.975 35.8202 126.244C35.522 128.918 34.9034 130.756 34.1873 130.756C33.6332 130.756 33.1359 129.651 32.802 127.91C32.5741 131.222 32.0002 133.57 31.3297 133.57C30.9089 133.57 30.5251 132.64 30.2411 131.124C29.8995 134.253 29.1104 136.445 28.1902 136.445C27.27 136.445 26.4794 134.254 26.1393 131.124C25.8573 132.64 25.4737 133.57 25.0507 133.57C24.3801 133.57 23.8078 131.222 23.5785 127.91C23.2446 129.651 22.7486 130.756 22.1931 130.756C21.4777 130.756 20.8584 128.919 20.5603 126.244C20.3729 126.977 20.1373 127.41 19.8834 127.41C19.264 127.41 18.7618 124.844 18.7618 121.678C18.7618 118.512 19.264 115.945 19.8834 115.945C20.2159 115.945 20.5132 116.687 20.7194 117.862C21.0499 115.834 21.5864 114.517 22.1931 114.517C22.9134 114.517 23.5378 116.38 23.833 119.086C24.122 117.116 24.5604 115.861 25.0514 115.861C25.7395 115.861 26.3244 118.331 26.5411 121.776C26.9487 120.01 27.5386 118.902 28.1916 118.902C28.8446 118.902 29.4345 120.011 29.8413 121.776C30.0588 118.331 30.643 115.861 31.3311 115.861C31.8214 115.861 32.2591 117.116 32.5494 119.086C32.8441 116.38 33.4684 114.517 34.1887 114.517C34.7933 114.517 35.3319 115.835 35.6623 117.862ZM17.1592 121.114C17.1592 119.698 17.444 118.551 17.7954 118.551C18.1468 118.551 18.4315 119.698 18.4315 121.114C18.4315 122.529 18.1468 123.677 17.7954 123.677C17.444 123.677 17.1592 122.529 17.1592 121.114ZM37.9484 121.114C37.9484 119.698 38.2331 118.551 38.5845 118.551C38.9359 118.551 39.2208 119.698 39.2208 121.114C39.2208 122.529 38.9359 123.677 38.5845 123.677C38.2331 123.677 37.9484 122.529 37.9484 121.114Z" fill="white"/>
<path d="M115 36.5C115 20.2076 101.792 7 85.5 7C69.2076 7 56 20.2076 56 36.5C56 52.7924 69.2076 66 85.5 66C101.792 66 115 52.7924 115 36.5Z" stroke="#F4F4F4"/>
<path d="M64.7772 34.5984C64.7338 34.5996 64.6926 34.6177 64.6619 34.649C64.6312 34.6803 64.6135 34.7224 64.6124 34.7666L64.3096 37.1124L64.6124 39.4218C64.6146 39.4652 64.6328 39.5062 64.6634 39.5366C64.6939 39.5669 64.7346 39.5843 64.7772 39.5854C64.8195 39.5833 64.8595 39.5656 64.8899 39.5354C64.9202 39.5053 64.9387 39.4649 64.942 39.4218L65.3027 37.1124L64.942 34.7621C64.9387 34.719 64.9202 34.6786 64.8899 34.6484C64.8595 34.6183 64.8195 34.6005 64.7772 34.5984ZM66.4828 33.3164C66.4741 33.2754 66.4523 33.2385 66.4209 33.2114C66.3895 33.1843 66.3502 33.1685 66.3091 33.1664C66.2645 33.1685 66.2222 33.1873 66.1902 33.2191C66.1581 33.2509 66.1387 33.2937 66.1355 33.3392L65.7302 37.1351L66.1355 40.8492C66.1388 40.8943 66.1584 40.9365 66.1905 40.9676C66.2226 40.9987 66.2649 41.0164 66.3091 41.0174C66.3531 41.0155 66.3948 40.9974 66.4268 40.9665C66.4587 40.9355 66.4786 40.8939 66.4828 40.8492L66.9282 37.1351L66.4828 33.3164ZM72.8957 29.816C72.8141 29.8171 72.7362 29.8504 72.6781 29.9089C72.62 29.9673 72.5863 30.0464 72.584 30.1297L72.2589 37.1169L72.584 41.6312C72.5863 41.7144 72.62 41.7935 72.6781 41.852C72.7362 41.9104 72.8141 41.9437 72.8957 41.9448C72.9771 41.9417 73.0544 41.9078 73.1128 41.8499C73.1711 41.792 73.2064 41.7141 73.2119 41.6312L73.5771 37.1169L73.2163 30.1297C73.2118 30.0456 73.1762 29.9665 73.1167 29.9082C73.0571 29.85 72.9782 29.817 72.8957 29.816ZM69.5779 32.2572C69.5148 32.2583 69.4544 32.2837 69.409 32.3284C69.3635 32.3732 69.3364 32.4338 69.333 32.4981L68.9678 37.126L69.333 41.6039C69.341 41.6638 69.3699 41.7188 69.4146 41.7586C69.4592 41.7983 69.5164 41.8203 69.5757 41.8203C69.635 41.8203 69.6922 41.7983 69.7368 41.7586C69.7815 41.7188 69.8104 41.6638 69.8184 41.6039L70.2326 37.126L69.8184 32.4845C69.812 32.4234 69.7841 32.3667 69.7399 32.3249C69.6957 32.2831 69.6381 32.2591 69.5779 32.2572ZM76.258 41.9585C76.3585 41.9573 76.4546 41.9164 76.526 41.8443C76.5975 41.7722 76.6387 41.6746 76.641 41.5721L76.9572 37.1306L76.6544 27.8203C76.6441 27.7233 76.5991 27.6335 76.528 27.5684C76.4569 27.5032 76.3647 27.4671 76.2691 27.4671C76.1736 27.4671 76.0814 27.5032 76.0103 27.5684C75.9391 27.6335 75.8942 27.7233 75.8839 27.8203L75.6034 37.1169L75.8884 41.5584C75.8918 41.6606 75.9333 41.7575 76.0046 41.8294C76.0758 41.9013 76.1713 41.9426 76.2714 41.9448L76.258 41.9585ZM83.1652 41.9585C83.3039 41.9561 83.4362 41.8989 83.5343 41.7988C83.6323 41.6987 83.6884 41.5636 83.6907 41.422L83.9134 37.1124L83.6907 26.3701C83.6907 26.2278 83.6353 26.0914 83.5368 25.9908C83.4382 25.8902 83.3046 25.8336 83.1652 25.8336C83.0258 25.8336 82.8922 25.8902 82.7936 25.9908C82.6951 26.0914 82.6397 26.2278 82.6397 26.3701L82.4393 37.1033L82.6397 41.422C82.6391 41.4942 82.6527 41.5658 82.6796 41.6326C82.7065 41.6994 82.7463 41.7599 82.7965 41.8108C82.8467 41.8616 82.9064 41.9017 82.972 41.9286C83.0376 41.9555 83.1079 41.9688 83.1786 41.9676L83.1652 41.9585ZM79.6827 41.9585C79.8008 41.9585 79.914 41.9106 79.9976 41.8253C80.0811 41.7401 80.128 41.6244 80.128 41.5039L80.3997 37.1351L80.1503 27.7521C80.1503 27.6315 80.1033 27.5159 80.0198 27.4306C79.9363 27.3454 79.823 27.2975 79.7049 27.2975C79.5868 27.2975 79.4735 27.3454 79.39 27.4306C79.3065 27.5159 79.2596 27.6315 79.2596 27.7521L79.0057 37.1215L79.2462 41.4902C79.2456 41.5507 79.2569 41.6107 79.2793 41.6667C79.3016 41.7226 79.3348 41.7735 79.3766 41.8163C79.4185 41.859 79.4684 41.8928 79.5232 41.9157C79.578 41.9385 79.6368 41.95 79.696 41.9494L79.6827 41.9585ZM71.2212 41.9176C71.2933 41.9164 71.3623 41.887 71.4137 41.8353C71.4651 41.7837 71.4951 41.7138 71.4973 41.6402L71.8803 37.1124L71.4884 32.8209C71.4861 32.7473 71.4562 32.6775 71.4048 32.6258C71.3534 32.5742 71.2844 32.5447 71.2123 32.5436C71.1398 32.5447 71.0703 32.574 71.0182 32.6255C70.9661 32.677 70.9352 32.7469 70.9318 32.8209L70.5888 37.1124L70.9318 41.6266C70.9352 41.7042 70.9685 41.7773 71.0243 41.83C71.0802 41.8827 71.1541 41.9109 71.2301 41.9085L71.2212 41.9176ZM67.9257 41.6721C67.9795 41.6689 68.0303 41.646 68.0688 41.6076C68.1073 41.5691 68.1308 41.5178 68.135 41.463L68.5804 37.1215L68.135 32.6163C68.1307 32.562 68.107 32.5112 68.0684 32.4735C68.0299 32.4358 67.9791 32.4138 67.9257 32.4118C67.8725 32.4129 67.8217 32.4347 67.7836 32.4727C67.7456 32.5107 67.7231 32.562 67.7209 32.6163L67.3334 37.1215L67.7209 41.463C67.7253 41.5176 67.7498 41.5686 67.7894 41.6056C67.8291 41.6427 67.8809 41.6632 67.9346 41.663L67.9257 41.6721ZM81.4284 27.5975C81.3641 27.5975 81.3004 27.6104 81.2409 27.6356C81.1815 27.6607 81.1275 27.6975 81.082 27.744C81.0365 27.7904 81.0004 27.8455 80.9758 27.9062C80.9512 27.9669 80.9385 28.0319 80.9385 28.0976L80.7203 37.1215L80.9385 41.463C80.9385 41.5956 80.9901 41.7228 81.082 41.8166C81.1739 41.9103 81.2985 41.963 81.4284 41.963C81.5583 41.963 81.6829 41.9103 81.7748 41.8166C81.8667 41.7228 81.9183 41.5956 81.9183 41.463L82.1677 37.1215L81.9183 28.093C81.9183 28.0276 81.9056 27.9628 81.8809 27.9023C81.8562 27.8419 81.8201 27.7871 81.7745 27.741C81.729 27.695 81.6749 27.6586 81.6155 27.6339C81.5561 27.6093 81.4925 27.5969 81.4284 27.5975ZM74.5791 41.9539C74.6705 41.9516 74.7575 41.9135 74.8222 41.8475C74.8869 41.7815 74.9242 41.6927 74.9264 41.5993L75.2694 37.1169L74.9264 28.534C74.9167 28.4463 74.8757 28.3653 74.8112 28.3065C74.7468 28.2477 74.6633 28.2152 74.5769 28.2152C74.4904 28.2152 74.407 28.2477 74.3425 28.3065C74.278 28.3653 74.237 28.4463 74.2273 28.534L73.9244 37.1169L74.2273 41.6039C74.2296 41.6975 74.2677 41.7866 74.3334 41.852C74.3991 41.9174 74.4873 41.954 74.5791 41.9539ZM78.3956 41.5311L78.6896 37.1215L78.3956 27.5066C78.3956 27.3933 78.3515 27.2846 78.273 27.2044C78.1945 27.1243 78.088 27.0793 77.977 27.0793C77.866 27.0793 77.7595 27.1243 77.681 27.2044C77.6025 27.2846 77.5584 27.3933 77.5584 27.5066L77.2956 37.1169L77.5584 41.5311C77.5584 41.6445 77.6025 41.7532 77.681 41.8333C77.7595 41.9135 77.866 41.9585 77.977 41.9585C78.088 41.9585 78.1945 41.9135 78.273 41.8333C78.3515 41.7532 78.3956 41.6445 78.3956 41.5311ZM100.627 31.5798C99.9513 31.578 99.282 31.714 98.6585 31.9799C98.4572 29.6952 97.4255 27.5702 95.7664 26.023C94.1073 24.4758 91.941 23.6184 89.6939 23.6197C88.5791 23.6218 87.4741 23.8329 86.434 24.2425C86.051 24.3925 85.9486 24.5517 85.9441 24.8517V41.3493C85.9455 41.5025 86.0022 41.6497 86.1032 41.7629C86.2043 41.8761 86.3426 41.9474 86.4919 41.963H100.614C101.295 41.9836 101.974 41.8643 102.609 41.6124C103.244 41.3604 103.824 40.9808 104.313 40.496C104.802 40.0113 105.191 39.4312 105.457 38.7903C105.722 38.1493 105.859 37.4605 105.859 36.7646C105.859 36.0687 105.722 35.3799 105.457 34.7389C105.191 34.098 104.802 33.518 104.313 33.0332C103.824 32.5485 103.244 32.1689 102.609 31.9169C101.974 31.6649 101.295 31.5456 100.614 31.5662L100.627 31.5798ZM84.9154 24.8381C84.7662 24.8381 84.623 24.8983 84.517 25.0056C84.4111 25.1128 84.351 25.2585 84.3498 25.4109L84.1227 37.1215L84.3498 41.372C84.3498 41.5239 84.4089 41.6696 84.5142 41.7771C84.6194 41.8845 84.7621 41.9448 84.9109 41.9448C85.0598 41.9448 85.2025 41.8845 85.3077 41.7771C85.4129 41.6696 85.4721 41.5239 85.4721 41.372L85.7215 37.1215L85.4765 25.4063C85.4742 25.2556 85.4142 25.1117 85.3093 25.0055C85.2045 24.8993 85.0631 24.8392 84.9154 24.8381ZM68.4379 45.2953C67.8322 45.1543 67.6719 45.0771 67.6719 44.8407C67.6719 44.6679 67.8055 44.4906 68.2152 44.4906C68.3787 44.4915 68.5401 44.5276 68.689 44.5966C68.8378 44.6655 68.9708 44.7657 69.0791 44.8907L69.6269 44.3451C69.4526 44.1426 69.2373 43.9812 68.9958 43.8721C68.7544 43.763 68.4926 43.7088 68.2286 43.7132C67.4759 43.7132 66.8703 44.1451 66.8703 44.8498C66.8703 45.5544 67.3601 45.8453 68.0593 46.009C68.7585 46.1727 68.9055 46.2863 68.9055 46.5363C68.9055 46.7864 68.6917 46.9591 68.2419 46.9591C68.057 46.9628 67.8737 46.9238 67.7056 46.8451C67.5375 46.7664 67.389 46.65 67.2711 46.5045L66.7233 47.0046C66.8965 47.2346 67.121 47.419 67.3782 47.5424C67.6354 47.6658 67.9178 47.7245 68.2018 47.7138C69.2395 47.7138 69.6937 47.2137 69.6937 46.4772C69.6937 45.6362 69.0257 45.4407 68.4245 45.2816L68.4379 45.2953ZM71.9338 43.7269C70.8961 43.7269 70.286 44.5497 70.286 45.7271C70.286 46.9046 70.8828 47.7138 71.9204 47.7138C72.958 47.7138 73.5726 46.8955 73.5726 45.7135C73.5726 44.5315 72.958 43.7132 71.9204 43.7132L71.9338 43.7269ZM71.9338 46.9591C71.3192 46.9591 71.0654 46.4227 71.0654 45.7317C71.0654 45.0407 71.3192 44.4997 71.9338 44.4997C72.5483 44.4997 72.771 45.0225 72.771 45.7181C72.771 46.4136 72.535 46.9455 71.9204 46.9455L71.9338 46.9591ZM76.6544 45.9681C76.6544 46.5909 76.3515 46.9728 75.8706 46.9728C75.3896 46.9728 75.0957 46.5773 75.0957 45.959V43.7769H74.3208V45.9544C74.3208 47.0864 74.9398 47.7183 75.8572 47.7183C76.7746 47.7183 77.3981 47.0682 77.3981 45.9454V43.7769H76.641L76.6544 45.9681ZM80.6802 45.4407C80.6802 45.6544 80.6802 46.1408 80.6802 46.2863C80.6312 46.1863 80.5065 45.9954 80.413 45.8317L79.077 43.7814H78.3466V47.6592H79.0993V45.9499C79.0993 45.7317 79.0993 45.2453 79.0993 45.0998C79.1483 45.1998 79.273 45.3953 79.3665 45.5544L80.7604 47.6729H81.4417V43.7769H80.6802V45.4407ZM83.5927 43.7996H82.4037V47.6774H83.5393C83.7962 47.6979 84.0543 47.6621 84.2966 47.5724C84.5388 47.4827 84.7594 47.3412 84.9437 47.1574C85.128 46.9736 85.2716 46.7517 85.3651 46.5066C85.4585 46.2615 85.4995 45.9988 85.4854 45.7362C85.4854 44.2951 84.6794 43.7769 83.5927 43.7769V43.7996ZM83.5393 46.9273H83.1652V44.5315H83.566C84.3721 44.5315 84.7016 44.9225 84.7016 45.7181C84.7194 45.8783 84.7015 46.0405 84.6493 46.1927C84.5972 46.3449 84.5121 46.4831 84.4004 46.5971C84.2888 46.7111 84.1533 46.798 84.0043 46.8512C83.8552 46.9044 83.6962 46.9227 83.5393 46.9046V46.9273ZM87.8368 44.5088C87.9801 44.5012 88.1223 44.5368 88.2459 44.6111C88.3694 44.6855 88.4688 44.7954 88.5315 44.927L89.2485 44.5724C89.1292 44.3026 88.9326 44.076 88.6845 43.9226C88.4364 43.7692 88.1486 43.6962 87.8591 43.7132C86.866 43.7132 86.1712 44.5361 86.1712 45.7135C86.1712 46.8909 86.8259 47.7138 87.819 47.7138C88.1161 47.735 88.4125 47.6627 88.6681 47.5066C88.9237 47.3505 89.1263 47.1182 89.2485 46.8409L88.6073 46.4545C88.5443 46.6019 88.4401 46.7271 88.3078 46.8144C88.1756 46.9017 88.021 46.9473 87.8635 46.9455C87.2935 46.9455 86.9729 46.4136 86.9729 45.7135C86.9729 45.0134 87.2668 44.4861 87.8368 44.4861V44.5088ZM90.6558 43.7996H89.8943V47.6774H92.1789V46.8909H90.6558V43.7996ZM94.1829 43.736C93.1453 43.736 92.5307 44.5588 92.5307 45.7362C92.5307 46.9137 93.1453 47.7138 94.1829 47.7138C95.2205 47.7138 95.8306 46.8909 95.8306 45.709C95.8306 44.527 95.2161 43.7132 94.1829 43.7132V43.736ZM94.1829 46.9682C93.5683 46.9682 93.2922 46.4318 93.2922 45.7408C93.2922 45.0498 93.5461 44.5088 94.1829 44.5088C94.8197 44.5088 95.0379 45.0225 95.0379 45.7181C95.0379 46.4136 94.793 46.9455 94.1829 46.9455V46.9682ZM98.899 45.9772C98.899 46.6 98.6007 46.9819 98.1197 46.9819C97.6387 46.9819 97.3403 46.5863 97.3403 45.9681V43.7769H96.5788V45.9544C96.5788 47.0864 97.1978 47.7183 98.1197 47.7183C99.0415 47.7183 99.6606 47.0682 99.6606 45.9454V43.7769H98.899V45.9772ZM101.798 43.7996H100.609V47.6774H101.745C102.001 47.6972 102.259 47.6609 102.501 47.5709C102.742 47.4809 102.962 47.3393 103.146 47.1556C103.33 46.9719 103.473 46.7502 103.566 46.5054C103.66 46.2607 103.7 45.9984 103.686 45.7362C103.686 44.2951 102.885 43.7769 101.798 43.7769V43.7996ZM101.745 46.9273H101.371V44.5315H101.771C102.573 44.5315 102.907 44.9225 102.907 45.7181C102.925 45.8783 102.907 46.0405 102.855 46.1927C102.803 46.3449 102.718 46.4831 102.606 46.5971C102.494 46.7111 102.359 46.798 102.21 46.8512C102.061 46.9044 101.902 46.9227 101.745 46.9046V46.9273Z" fill="white"/>
</svg>
