<svg width="40" height="40" viewBox="0 0 40 40" fill="none" xmlns="http://www.w3.org/2000/svg">
<g clip-path="url(#clip0_1014_1260)">
<rect x="0.5" y="0.5" width="39" height="39" rx="19.5" stroke="white"/>
<path d="M20 10C14.4773 10 10 14.4768 10 20C10 25.5232 14.4773 30 20 30C25.5227 30 30 25.5232 30 20C30 14.4768 25.5227 10 20 10ZM24.8788 24.4156C24.7182 24.7 24.4227 24.86 24.1182 24.86C23.9758 24.86 23.8288 24.8244 23.6939 24.7494C22.4455 24.0494 21.0849 23.6206 19.647 23.475C18.2061 23.3306 16.7833 23.4768 15.4167 23.9132C14.9606 24.0588 14.4697 23.8068 14.3242 23.35C14.1773 22.8924 14.4303 22.4032 14.8879 22.2568C16.4818 21.7476 18.1439 21.5744 19.8227 21.745C21.4985 21.9156 23.0864 22.4156 24.5439 23.2326C24.9636 23.4662 25.1136 23.9962 24.8788 24.4156ZM26.0758 21.3782C25.9212 21.6756 25.6182 21.8462 25.3045 21.8462C25.1682 21.8462 25.0318 21.815 24.903 21.7476C23.3682 20.9482 21.7106 20.4532 19.9727 20.2768C18.2212 20.0976 16.4864 20.2538 14.8136 20.7362C14.3515 20.8674 13.8697 20.6032 13.7379 20.1412C13.6046 19.68 13.8712 19.1982 14.3318 19.065C16.2197 18.5206 18.1773 18.3462 20.1485 18.5462C22.1061 18.7456 23.9758 19.3032 25.7076 20.2056C26.1318 20.4276 26.2985 20.9524 26.0758 21.3782ZM26.5091 18.8512C26.3788 18.8512 26.247 18.8218 26.1212 18.76C24.3 17.8518 22.3409 17.2862 20.297 17.0788C18.25 16.8694 16.2136 17.0312 14.2424 17.5576C13.7788 17.6806 13.303 17.4056 13.1788 16.9412C13.0545 16.4774 13.3303 16.0006 13.7955 15.8768C15.9697 15.2962 18.2182 15.1194 20.4742 15.3488C22.7273 15.5768 24.8879 16.2012 26.897 17.2032C27.3273 17.4174 27.5015 17.94 27.2879 18.3694C27.1364 18.675 26.8288 18.8512 26.5091 18.8512Z" fill="white"/>
</g>
<defs>
<clipPath id="clip0_1014_1260">
<rect width="40" height="40" fill="white"/>
</clipPath>
</defs>
</svg>
