<svg width="241" height="72" viewBox="0 0 241 72" fill="none" xmlns="http://www.w3.org/2000/svg">
<g id="Group">
<path id="Vector" d="M22.5099 9.36277V18.7244H14.9365H7.36305V9.46795V0.211544H3.68153H0V27.9808V55.75H3.68153H7.36305V40.9187V26.0874H8.83567H10.3083V40.9187V55.75H13.9898H17.6713V40.9187V26.0874H20.0906H22.5099V40.9187V55.75H26.1914H29.873V40.9187V26.0874H31.7663H33.6597V40.9187V55.75H37.3412H41.0227V45.9045C41.0227 37.8893 41.0858 35.8277 41.3383 34.7337C42.306 30.6525 46.0927 27.0341 50.174 26.2768C52.6353 25.8139 55.9803 26.4871 57.9788 27.8545C60.3139 29.4323 61.9548 31.494 62.7543 33.8712C63.196 35.1966 63.196 35.6173 63.2802 45.4838L63.3433 55.75H67.0248H70.7064L70.6222 45.0631C70.5591 35.9118 70.496 34.2078 70.2015 33.0508C69.381 29.9793 67.8242 26.971 65.994 24.9304C64.6687 23.4157 61.9969 21.4382 60.1036 20.5336C56.7166 18.9137 55.2439 18.7244 45.6089 18.7244H41.0227V9.46795V0.211544H37.3412H33.6597V9.46795V18.7244H31.7663H29.873V9.36277V0.00117111H26.1914H22.5099V9.36277Z" fill="#F4F4F4"/>
<path id="Vector_2" d="M12.1814 9.3196C11.0454 9.92968 10.3091 11.1078 10.3091 12.37C10.3091 15.4835 13.7171 17.2927 16.1154 15.4625C17.7142 14.2423 18.0718 12.7066 17.1883 10.8764C16.2206 8.91989 14.1799 8.26774 12.1814 9.3196Z" fill="#F4F4F4"/>
<path id="Vector_3" d="M195.541 9.13052C193.08 10.2455 192.596 13.4011 194.636 15.2944C195.604 16.1991 197.161 16.4515 198.444 15.9045C199.265 15.5679 200.422 14.3057 200.611 13.5484C201.011 11.9706 200.085 9.82475 198.739 9.19363C197.855 8.77289 196.404 8.75185 195.541 9.13052Z" fill="#F4F4F4"/>
<path id="Vector_4" d="M73.4835 26.866C73.5887 35.3651 73.778 37.5319 74.5775 40.7085C76.2604 47.3774 79.4581 51.69 84.5071 54.1724C86.716 55.2453 88.1255 55.5819 91.0917 55.6871C93.4269 55.7712 93.9528 55.7081 95.8041 55.2453C103.946 53.1416 109.016 47.167 110.236 38.1841C110.383 37.2584 110.53 32.504 110.593 27.6023L110.699 18.7246H106.996H103.293V26.0245C103.293 36.6273 103.02 38.8783 101.4 42.2022C99.6539 45.7785 96.309 48.0506 92.354 48.324C86.9684 48.7027 83.2028 45.1474 81.4777 38.0789C81.2042 36.9849 81.1201 34.9864 81.057 27.7075L80.9518 18.7246H77.1651H73.3573L73.4835 26.866Z" fill="#F4F4F4"/>
<path id="Vector_5" d="M128.685 19.0399C125.067 19.7341 121.806 21.4592 119.155 24.0678C115.053 28.1491 113.454 32.2093 113.643 38.0576C113.728 40.6452 113.812 41.1291 114.485 43.0855C115.558 46.178 116.883 48.2607 119.218 50.4907C123.321 54.4247 127.297 55.9183 132.956 55.6869C136.532 55.5396 139.477 54.5929 142.17 52.7627L143.054 52.1526V53.9618V55.75H146.84H150.627V37.2372V18.7244H146.84H143.054V20.5125V22.3007L142.254 21.7958C138.173 19.2293 133.124 18.1984 128.685 19.0399ZM133.923 26.3188C137.289 26.9289 140.487 29.3903 142.044 32.5248C142.843 34.1447 142.906 34.4392 143.012 36.4167C143.075 37.7421 143.012 38.9833 142.843 39.7196C141.749 44.6213 137.079 48.3869 132.114 48.3869C129.085 48.3869 126.645 47.3351 124.309 45.042C121.932 42.6858 120.964 40.4559 120.964 37.3634C120.964 34.1868 121.953 31.8306 124.246 29.5165C126.981 26.7396 130.263 25.6456 133.923 26.3188Z" fill="#F4F4F4"/>
<path id="Vector_6" d="M153.362 37.2372V55.75H157.022H160.704L160.788 45.4838C160.872 34.2078 160.893 34.0605 162.24 31.494C164.028 28.128 166.868 26.424 171.096 26.1716C175.893 25.877 179.659 27.7704 181.615 31.494C182.982 34.1026 183.025 34.4813 183.025 45.6942V55.75H186.706H190.388V45.3365C190.388 36.6692 190.324 34.6286 190.051 33.3032C189.252 29.4113 187.758 26.6133 184.918 23.7523C183.193 22.0062 182.646 21.5854 180.921 20.7439C177.723 19.1872 176.208 18.8716 171.98 18.8716C167.73 18.8716 166.195 19.1872 163.039 20.765C161.945 21.333 160.977 21.7958 160.893 21.8379C160.788 21.88 160.725 21.2068 160.725 20.3232V18.7244H157.043H153.362V37.2372Z" fill="#F4F4F4"/>
<path id="Vector_7" d="M193.333 37.2372V55.75H197.015H200.696V37.2372V18.7244H197.015H193.333V37.2372Z" fill="#F4F4F4"/>
<path id="Vector_8" d="M218.893 19.0399C212.624 20.197 207.323 24.5517 204.903 30.5052C202.821 35.5963 203.368 41.8023 206.313 46.9143C207.365 48.7235 210.478 51.8371 212.498 53.0783C214.433 54.2774 216.853 55.203 219.062 55.5396C221.081 55.8762 225.12 55.7079 226.887 55.2241C228.213 54.8664 231.453 53.3728 232.631 52.5944L233.304 52.1316V53.9408V55.75H236.985H240.667V37.2372V18.7244H236.985H233.304V20.5125C233.304 21.5013 233.262 22.3007 233.22 22.3007C233.178 22.3007 232.504 21.922 231.726 21.4382C227.876 19.103 223.206 18.2405 218.893 19.0399ZM225.709 26.7816C230.821 28.5698 233.998 33.7871 233.136 38.9622C232.399 43.338 228.697 47.293 224.51 48.1555C220.766 48.9339 217.105 47.7769 214.265 44.9368C209.868 40.498 209.91 33.9133 214.37 29.4744C217.526 26.3188 221.607 25.3511 225.709 26.7816Z" fill="#F4F4F4"/>
<path id="Vector_9" d="M157.632 58.884C152.541 60.1884 150.816 66.4785 154.519 70.1811C156.223 71.8851 159.21 72.4321 161.692 71.5064L162.913 71.0436L163.27 71.5064C163.523 71.822 163.859 71.9482 164.49 71.9482C164.974 71.9482 165.353 71.8851 165.353 71.822C165.353 71.7589 165.058 71.3171 164.68 70.8543C164.133 70.16 164.07 69.9497 164.28 69.6551C165.795 67.5935 166.11 64.7955 165.079 62.5866C164.322 60.9667 163.649 60.2725 162.092 59.4941C160.746 58.7999 158.915 58.5474 157.632 58.884ZM161.314 60.9247C164.259 62.3973 165.016 66.0998 162.87 68.5822C161.861 69.7814 160.683 70.3283 159.147 70.3494C155.339 70.3704 152.983 66.1209 154.939 62.797C156.223 60.5881 159 59.7676 161.314 60.9247Z" fill="#F4F4F4"/>
<path id="Vector_10" d="M141.981 62.7338C141.981 64.8585 141.939 67.6986 141.897 69.0449L141.833 71.5273H142.654H143.453L143.516 68.519L143.58 65.5317L146.903 65.4686L150.206 65.4055L150.227 67.5723C150.227 68.7715 150.227 70.1389 150.206 70.6227L150.164 71.5273H151.027H151.889V65.1951V58.8839L151.111 58.947L150.312 59.0102L150.29 60.2724C150.269 60.9666 150.248 62.0816 150.227 62.7548L150.206 63.975L146.903 63.9118L143.58 63.8487L143.516 61.3663L143.453 58.905H142.738H142.002L141.981 62.7338Z" fill="#F4F4F4"/>
</g>
</svg>
